inDegrees=yes
name=ik_S42_A08_T01
DataType=double
version=3
OpenSimVersion=4.3-2021-08-27-4bc7ad9
endheader
time	pelvis_tilt	pelvis_list	pelvis_rotation	pelvis_tx	pelvis_ty	pelvis_tz	hip_flexion_r	hip_adduction_r	hip_rotation_r	knee_angle_r	knee_angle_r_beta	ankle_angle_r	subtalar_angle_r	mtp_angle_r	hip_flexion_l	hip_adduction_l	hip_rotation_l	knee_angle_l	knee_angle_l_beta	ankle_angle_l	subtalar_angle_l	mtp_angle_l	lumbar_extension	lumbar_bending	lumbar_rotation	arm_flex_r	arm_add_r	arm_rot_r	elbow_flex_r	pro_sup_r	wrist_flex_r	wrist_dev_r	arm_flex_l	arm_add_l	arm_rot_l	elbow_flex_l	pro_sup_l	wrist_flex_l	wrist_dev_l
6.559999999999948	-8.647283853376605	-0.4168313969944859	31.08572611568162	0	0.9399999999999999	0	41.59963901044469	-10.98595087690762	-10.59339628823413	55.40620267258771	0.9670206626639373	0	0	0	41.59963901044469	-10.98595087690762	-10.59339628823413	55.40620267258771	0.9670206626639373	0	0	0	-6.225259302609075	-0.2125124195076104	-4.443374182917499	34.65260168122165	-6.384547295215627	9.552545736767993	55.12817232547006	123.0451941219217	0	0	88.47085270118012	-19.61610341397213	10.02320491053633	97.19851457729779	79.27538576840784	0	0
6.579999999999948	-8.613100598787168	-0.4069026531611784	31.0703941606817	0	0.9399999999999999	0	41.60082785874443	-10.98475293973068	-10.59293345716471	55.40610747805102	0.9670190012058422	0	0	0	41.60082785874443	-10.98475293973068	-10.59293345716471	55.40610747805102	0.9670190012058422	0	0	0	-6.191194851732519	-0.2217780676211903	-4.435215968970931	34.59563427760935	-6.358177348479735	9.458994661936462	55.13531011021038	123.0792221610806	0	0	88.88629895217964	-19.60902668503564	10.38539077182431	96.89755991086774	79.48670237026322	0	0
6.599999999999947	-8.602520262774153	-0.4030994977951057	31.10174927963255	0	0.9399999999999999	0	41.6022508270315	-10.98331962260924	-10.59237953550267	55.40599357837139	0.9670170132814156	0	0	0	41.6022508270315	-10.98331962260924	-10.59237953550267	55.40599357837139	0.9670170132814156	0	0	0	-6.180940352304639	-0.2199874076699047	-4.458377398553612	34.58023817105153	-6.378787118974567	9.460261406128858	55.12595088934565	123.1009624834247	0	0	89.29519621360798	-19.64079039654155	10.68938627882415	96.58430993009378	79.82888210303932	0	0
6.619999999999947	-8.57995532716369	-0.3981674076822576	31.13954417754184	0	0.9399999999999999	0	41.60371894705948	-10.98184141092265	-10.59180808962998	55.40587611890628	0.9670149632270117	0	0	0	41.60371894705948	-10.98184141092265	-10.59180808962998	55.40587611890628	0.9670149632270117	0	0	0	-6.159654756629005	-0.226711700588294	-4.45262539135031	34.51209701430091	-6.368837427305262	9.229576496803027	55.09373460223922	123.2429277596844	0	0	89.55964607011369	-19.74242408629795	10.90058512371571	96.40859829434318	80.06381721292526	0	0
6.639999999999946	-8.554057004612833	-0.3955154781534615	31.19691325596697	0	0.9399999999999999	0	41.60474657958883	-10.98080672337883	-10.59140803665362	55.40579396502074	0.9670135293712159	0	0	0	41.60474657958883	-10.98080672337883	-10.59140803665362	55.40579396502074	0.9670135293712159	0	0	0	-6.136536846511881	-0.2352089435042817	-4.468914620242985	34.46560282656177	-6.33458546404484	9.165512915768334	55.06248574474247	123.2266678507872	0	0	89.77487670128995	-19.87903954601704	11.05479039301915	96.32146169748164	80.35385959077955	0	0
6.659999999999946	-8.540556365439377	-0.3995305066063601	31.2396688485824	0	0.9399999999999999	0	41.6060186516883	-10.97952462721956	-10.59091242040113	55.40569244193694	0.9670117574591368	0	0	0	41.6060186516883	-10.97952462721956	-10.59091242040113	55.40569244193694	0.9670117574591368	0	0	0	-6.127641082274793	-0.2393338489755723	-4.516294622787146	34.48438413656812	-6.317964738522504	9.348657511789581	55.04366776005863	123.1485688418109	0	0	89.94758884231076	-19.94099342394178	11.1219852681968	96.18598150008471	81.00581647851962	0	0
6.679999999999946	-8.530215607648898	-0.3964029214061068	31.28755263666316	0	0.9399999999999999	0	41.60754672494323	-10.97798712307733	-10.59031763170145	55.40557038992359	0.9670096272496451	0	0	0	41.60754672494323	-10.97798712307733	-10.59031763170145	55.40557038992359	0.9670096272496451	0	0	0	-6.117686323982752	-0.238470674336668	-4.535450602804095	34.47431743263169	-6.349773712688717	9.492147006670145	55.07685058778134	123.0254532621893	0	0	90.09729618718733	-19.868782305583	11.17780623810518	95.9769762939768	81.4272258773336	0	0
6.699999999999945	-8.521375766656162	-0.4064511266887432	31.33877353176285	0	0.9399999999999999	0	41.60868039850936	-10.97685487307041	-10.5898784271993	55.40547929144827	0.9670080372813071	0	0	0	41.60868039850936	-10.97685487307041	-10.5898784271993	55.40547929144827	0.9670080372813071	0	0	0	-6.115803117767396	-0.2442641889083014	-4.595994576055485	34.48229619204437	-6.35501217614137	9.604283397171855	55.1064322145501	122.9735377735841	0	0	90.25281895030258	-19.9136853294552	11.13014933462881	96.27204011408119	82.28864945471557	0	0
6.719999999999945	-8.509472662910376	-0.4172038956897449	31.33713712405315	0	0.9399999999999999	0	41.60913111404452	-10.9764095113934	-10.58970503750565	55.40544271062105	0.9670073988254291	0	0	0	41.60913111404452	-10.9764095113934	-10.58970503750565	55.40544271062105	0.9670073988254291	0	0	0	-6.11119915956577	-0.2594804811671027	-4.595888230203155	34.46363245592778	-6.337293606886425	9.595669545043037	55.1037048143064	122.9715057745912	0	0	90.40989311604085	-19.91605324753215	11.06692905387881	96.38506845546058	82.28887359054437	0	0
6.739999999999944	-8.515815987348649	-0.4366782478554666	31.33571522479107	0	0.9399999999999999	0	41.61019997718079	-10.97534215687186	-10.58929092892306	55.40535686344739	0.9670059005095952	0	0	0	41.61019997718079	-10.97534215687186	-10.58929092892306	55.40535686344739	0.9670059005095952	0	0	0	-6.126912732791284	-0.2707173594499323	-4.607765664425256	34.50751514598306	-6.328553651364129	9.661722170195077	55.09942360377973	122.9109688635243	0	0	90.56537086570812	-19.94836490249268	10.98490458843531	96.71031130565316	82.25254022587066	0	0
6.759999999999944	-8.514057421115121	-0.4552933580641991	31.30665967087018	0	0.9399999999999999	0	41.61099105748487	-10.97455410301476	-10.5889848934959	55.40529322013043	0.9670047897241674	0	0	0	41.61099105748487	-10.97455410301476	-10.5889848934959	55.40529322013043	0.9670047897241674	0	0	0	-6.135180813872894	-0.2864049662176346	-4.613646841644985	34.52617288276118	-6.335026243857391	9.687628888013677	55.11191782436318	122.8854114540072	0	0	90.70433770772244	-19.95946699069826	10.89098013307434	96.98154106029514	82.35790778578306	0	0
6.779999999999943	-8.495617932021561	-0.4648072269575596	31.28774707151572	0	0.9399999999999999	0	41.61123184927542	-10.97432073066297	-10.58889340665965	55.405273354344	0.9670044430007858	0	0	0	41.61123184927542	-10.97432073066297	-10.58889340665965	55.405273354344	0.9670044430007858	0	0	0	-6.124299025375388	-0.3036961924426487	-4.617990917587119	34.48367378604035	-6.291167813687926	9.69155697826767	55.10585291820219	122.8772143610946	0	0	90.81666247440626	-19.94340899907496	10.76639835910263	97.04189658547365	82.41786641130737	0	0
6.799999999999943	-8.500281724021425	-0.4790509667588914	31.20918669922546	0	0.9399999999999999	0	41.61224433374102	-10.97331331595374	-10.58850197224376	55.40519186309838	0.9670030207102381	0	0	0	41.61224433374102	-10.97331331595374	-10.58850197224376	55.40519186309838	0.9670030207102381	0	0	0	-6.135988407311286	-0.3099670486677026	-4.643928769162711	34.52519147345474	-6.226329754082907	9.756745994208071	55.09796840526422	122.9202642905035	0	0	90.94441434548715	-20.01671940385399	10.61347839006725	97.39887767224891	82.75681781303372	0	0
6.819999999999943	-8.490864726610294	-0.4762409580926559	31.17936615185337	0	0.9399999999999999	0	41.61863971915336	-10.97124111297038	-10.5869243983812	55.40462622107007	0.9669931483944564	0	0	0	41.61863971915336	-10.97124111297038	-10.5869243983812	55.40462622107007	0.9669931483944564	0	0	0	-6.128330726724706	-0.309044253089364	-4.61305996087864	34.51132005503499	-6.214202248853264	9.714037329803398	55.03405481833335	122.9555255193988	0	0	90.92251125766639	-20.08238001774988	10.58668408990752	97.96109034729234	82.66410963719368	0	0
6.839999999999942	-8.495790639644651	-0.4848656527806293	31.09766558488679	0	0.9399999999999999	0	41.61990329468556	-10.96997784752092	-10.58643458685347	55.40452502178179	0.9669913821336752	0	0	0	41.61990329468556	-10.96997784752092	-10.58643458685347	55.40452502178179	0.9669913821336752	0	0	0	-6.137335898284358	-0.3130326784419279	-4.608562359250678	34.54389118724471	-6.152111931846489	9.695911343080292	55.00249772747729	123.0369717305738	0	0	91.13375224036722	-20.16746828956669	10.56202177545227	98.31522976756061	82.11658897855445	0	0
6.859999999999942	-8.484347572930076	-0.485749325864764	31.03546266060784	0	0.9399999999999999	0	41.62108679250768	-10.96879781709512	-10.58597655299176	55.40443007385133	0.9669897249796707	0	0	0	41.62108679250768	-10.96879781709512	-10.58597655299176	55.40443007385133	0.9669897249796707	0	0	0	-6.128302615905726	-0.3216174339630959	-4.581519990468484	34.53736918573291	-6.11905540316882	9.680725173137597	54.98877167265866	123.0495400771324	0	0	91.36247209740058	-20.21318891193845	10.8533079999274	98.56202542578536	81.47012949160101	0	0
6.879999999999941	-8.47756279877148	-0.4685301112664975	30.97867528000303	0	0.9399999999999999	0	41.62140928639739	-10.96893445534892	-10.58595240214227	55.40439767227768	0.9669891594655278	0	0	0	41.62140928639739	-10.96893445534892	-10.58595240214227	55.40439767227768	0.9669891594655278	0	0	0	-6.113691005922925	-0.3095658865685803	-4.585470869233824	34.50452813764223	-6.121917460266376	9.707873200944949	54.9926454476265	123.111181750188	0	0	91.30564236153785	-20.31432178665136	10.82494655862302	98.87719620147421	81.19975902757102	0	0
6.899999999999941	-8.476861257397749	-0.4603551083440185	30.91565239582624	0	0.9399999999999999	0	41.62213818691663	-10.96821026991095	-10.58567096667034	55.40433901392261	0.9669881356840979	0	0	0	41.62213818691663	-10.96821026991095	-10.58567096667034	55.40433901392261	0.9669881356840979	0	0	0	-6.109246766714113	-0.304358931415765	-4.563029595872175	34.48691045837019	-6.106413312725879	9.711768429829203	55.00958579656509	123.1003115268471	0	0	91.41746984550666	-20.19811753655754	11.35719317235766	99.01839754388664	81.45508771594325	0	0
6.91999999999994	-8.476698837931766	-0.4514313675370974	30.89425886941041	0	0.9399999999999999	0	41.62257968237366	-10.96777628937774	-10.58550168667295	55.40430313874274	0.9669875095440895	0	0	0	41.62257968237366	-10.96777628937774	-10.58550168667295	55.40430313874274	0.9669875095440895	0	0	0	-6.104726996591719	-0.2964909396073417	-4.56094690453128	34.47102630377339	-6.117937459291722	9.709141984025207	55.01189003655055	123.1008824723357	0	0	91.48373397878638	-20.19296040130369	11.49873721679103	99.01622722844762	81.54738056007157	0	0
6.93999999999994	-8.480462228608953	-0.4593804280079969	30.90412105462842	0	0.9399999999999999	0	41.6235074642059	-10.96685723483658	-10.58514411528405	55.40422831372049	0.9669862036010884	0	0	0	41.6235074642059	-10.96685723483658	-10.58514411528405	55.40422831372049	0.9669862036010884	0	0	0	-6.112409435472723	-0.2994801223938692	-4.570389591423058	34.4773644528689	-6.097663373646658	9.681141387351238	55.04004567165465	123.1036283752124	0	0	91.64165680658962	-20.26890542158241	11.58637969189445	99.03385444451534	81.44368051690365	0	0
6.95999999999994	-8.482706086514805	-0.4509836810415846	30.91335530534817	0	0.9399999999999999	0	41.62451856877573	-10.96585246172746	-10.58475356422048	55.40414706398612	0.9669847855257073	0	0	0	41.62451856877573	-10.96585246172746	-10.58475356422048	55.40414706398612	0.9669847855257073	0	0	0	-6.110425533689215	-0.2876439004568146	-4.593166774391213	34.48515047854291	-6.107738171787782	9.704469342435159	55.0551060608933	123.1006472588287	0	0	91.77707386066177	-20.40087100722632	11.54164013994157	99.0528815285401	81.23582777018264	0	0
6.979999999999939	-8.477843308856565	-0.4456665883959776	30.92729102888575	0	0.9399999999999999	0	41.62824665378255	-10.9632199412888	-10.58355227444595	55.40383272132669	0.9669792992113206	0	0	0	41.62824665378255	-10.9632199412888	-10.58355227444595	55.40383272132669	0.9669792992113206	0	0	0	-6.104677662579193	-0.2811566809972232	-4.598510425315543	34.44700121794715	-6.109036758295558	9.680736266973121	55.06608703099591	123.0844444160048	0	0	91.86177000413753	-20.462616916806	11.50723021280722	99.05221619082832	81.17347390832545	0	0
